<?xml version="1.0" encoding="UTF-8" standalone="no"?>
<svg
   xmlns:dc="http://purl.org/dc/elements/1.1/"
   xmlns:cc="http://creativecommons.org/ns#"
   xmlns:rdf="http://www.w3.org/1999/02/22-rdf-syntax-ns#"
   xmlns:svg="http://www.w3.org/2000/svg"
   xmlns="http://www.w3.org/2000/svg"
   version="1.1"
   id="svg2"
   viewBox="0 0 800.00001 600.00001"
   height="600"
   width="800">
  <defs
     id="defs4">
    <marker
       orient="auto"
       refY="0.0"
       refX="0.0"
       id="marker4738"
       style="overflow:visible;">
      <path
         id="path4740"
         d="M 0.0,0.0 L 5.0,-5.0 L -12.5,0.0 L 5.0,5.0 L 0.0,0.0 z "
         style="fill-rule:evenodd;stroke:#000000;stroke-width:1pt;stroke-opacity:1;fill:#000000;fill-opacity:1"
         transform="scale(0.8) rotate(180) translate(12.5,0)" />
    </marker>
    <marker
       style="overflow:visible;"
       id="Arrow1Lend"
       refX="0.0"
       refY="0.0"
       orient="auto">
      <path
         transform="scale(0.8) rotate(180) translate(12.5,0)"
         style="fill-rule:evenodd;stroke:#000000;stroke-width:1pt;stroke-opacity:1;fill:#000000;fill-opacity:1"
         d="M 0.0,0.0 L 5.0,-5.0 L -12.5,0.0 L 5.0,5.0 L 0.0,0.0 z "
         id="path4459" />
    </marker>
  </defs>
  <metadata
     id="metadata7">
    <rdf:RDF>
      <cc:Work
         rdf:about="">
        <dc:format>image/svg+xml</dc:format>
        <dc:type
           rdf:resource="http://purl.org/dc/dcmitype/StillImage" />
        <dc:title></dc:title>
      </cc:Work>
    </rdf:RDF>
  </metadata>
  <g
     transform="translate(0,-452.36213)"
     id="layer1">
    <g
       transform="translate(0,148)"
       id="g3383">
      <text
         xml:space="preserve"
         style="font-style:normal;font-weight:normal;font-size:40px;line-height:125%;font-family:Sans;letter-spacing:0px;word-spacing:0px;fill:#000000;fill-opacity:1;stroke:none;stroke-width:1px;stroke-linecap:butt;stroke-linejoin:miter;stroke-opacity:1"
         x="13"
         y="641.36212"
         id="text3344"><tspan
           id="tspan3346"
           x="13"
           y="641.36212"
           style="font-size:20px">React.render(&lt;<tspan
   id="tspan4285"
   style="fill:#ff0000;fill-opacity:1">TreeView</tspan><tspan
   id="tspan4305"
   style="fill:#00ff00;fill-opacity:1"> x3dNode={doc.qS('x3d')</tspan>}/&gt;, <tspan
   id="tspan4335"
   style="fill:#0000ff;fill-opacity:1">doc.qS('#container')</tspan>)</tspan></text>
      <path
         style="fill:none;fill-rule:evenodd;stroke:#000000;stroke-width:1px;stroke-linecap:butt;stroke-linejoin:miter;stroke-opacity:1"
         d="m 149.47271,623.64802 c 0.002,-3.58942 1.36048,-4.78589 4.79261,-4.78589 l 171.73468,0 c 6.95551,0 7.5,-13.69069 7.5,-13.69069 0,0 0.87817,13.69069 7.5,13.69069 l 203.39547,0 c 3.64035,0.34565 4.64847,1.88777 4.46011,4.86566"
         id="path3348" />
      <path
         id="path3377"
         d="m 557.89865,623.63378 c 9.4e-4,-3.58942 0.71022,-4.78589 2.50193,-4.78589 l 89.65221,0 c 3.63104,0 3.91529,-13.69069 3.91529,-13.69069 0,0 0.45844,13.69069 3.91529,13.69069 l 106.18039,0 c 1.9004,0.34565 2.42668,1.88777 2.32835,4.86566"
         style="fill:none;fill-rule:evenodd;stroke:#000000;stroke-width:0.99999994px;stroke-linecap:butt;stroke-linejoin:miter;stroke-opacity:1" />
      <path
         style="fill:none;fill-rule:evenodd;stroke:#000000;stroke-width:0.99999994px;stroke-linecap:butt;stroke-linejoin:miter;stroke-opacity:1"
         d="m 151.69921,645.25096 c 4.6e-4,3.58942 0.35273,4.78589 1.2426,4.78589 l 44.52609,0 c 1.80337,0 1.94455,13.69069 1.94455,13.69069 0,0 0.22769,-13.69069 1.94454,-13.69069 l 52.73488,0 c 0.94385,-0.34565 1.20522,-1.88777 1.15639,-4.86566"
         id="path3379" />
      <path
         id="path3381"
         d="m 260.26957,645.26328 c 0.001,3.58942 0.89515,4.78589 3.15341,4.78589 l 112.99616,0 c 4.57649,0 4.93477,13.69069 4.93477,13.69069 0,0 0.57783,-13.69069 4.93478,-13.69069 l 133.82801,0 c 2.39525,-0.34565 3.05856,-1.88777 2.93462,-4.86566"
         style="fill:none;fill-rule:evenodd;stroke:#000000;stroke-width:1px;stroke-linecap:butt;stroke-linejoin:miter;stroke-opacity:1" />
    </g>
    <g
       transform="translate(0,168)"
       id="g4407">
      <text
         id="text3393"
         y="701.36212"
         x="13"
         style="font-style:normal;font-weight:normal;font-size:40px;line-height:125%;font-family:Sans;letter-spacing:0px;word-spacing:0px;fill:#000000;fill-opacity:1;stroke:none;stroke-width:1px;stroke-linecap:butt;stroke-linejoin:miter;stroke-opacity:1"
         xml:space="preserve"><tspan
           style="font-size:16.25px"
           y="701.36212"
           x="13"
           id="tspan3395">React.render(React.createElement(<tspan
   id="tspan4351"
   style="fill:#ff0000;fill-opacity:1">TreeView</tspan>(<tspan
   id="tspan4365"
   style="fill:#00ff00;fill-opacity:1">{x3dNode: doc.qS('x3d')}</tspan>)), <tspan
   id="tspan4379"
   style="fill:#0000ff;fill-opacity:1">doc.qS('#container')</tspan>)</tspan></text>
      <path
         id="path3397"
         d="m 300.79224,683.64802 c 0.001,-3.58942 1.00291,-4.78589 3.53305,-4.78589 l 126.60146,0 c 5.12755,0 5.52895,-13.69069 5.52895,-13.69069 0,0 0.64736,13.69069 5.52895,13.69069 l 149.94154,0 c 2.68361,0.34565 3.4268,1.88777 3.28793,4.86566"
         style="fill:none;fill-rule:evenodd;stroke:#000000;stroke-width:1px;stroke-linecap:butt;stroke-linejoin:miter;stroke-opacity:1" />
      <path
         style="fill:none;fill-rule:evenodd;stroke:#000000;stroke-width:0.99999988px;stroke-linecap:butt;stroke-linejoin:miter;stroke-opacity:1"
         d="m 605.76964,683.63378 c 7.2e-4,-3.58942 0.54747,-4.78589 1.92863,-4.78589 l 69.10914,0 c 2.79902,0 3.01814,-13.69069 3.01814,-13.69069 0,0 0.35339,13.69069 3.01813,13.69069 l 81.85003,0 c 1.46494,0.34565 1.87062,1.88777 1.79483,4.86566"
         id="path3399" />
      <path
         id="path3401"
         d="m 300.29063,705.25096 c 3.3e-4,3.58942 0.24698,4.78589 0.87003,4.78589 l 31.17547,0 c 1.26265,0 1.36149,13.69069 1.36149,13.69069 0,0 0.15942,-13.69069 1.36149,-13.69069 l 36.92296,0 c 0.66084,-0.34565 0.84386,-1.88777 0.80966,-4.86566"
         style="fill:none;fill-rule:evenodd;stroke:#000000;stroke-width:1px;stroke-linecap:butt;stroke-linejoin:miter;stroke-opacity:1" />
      <path
         style="fill:none;fill-rule:evenodd;stroke:#000000;stroke-width:1px;stroke-linecap:butt;stroke-linejoin:miter;stroke-opacity:1"
         d="m 381.238,705.26328 c 8e-4,3.58942 0.7125,4.78589 2.50995,4.78589 l 89.93935,0 c 3.64267,0 3.92783,13.69069 3.92783,13.69069 0,0 0.45992,-13.69069 3.92784,-13.69069 l 106.52047,0 c 1.9065,-0.34565 2.43447,-1.88777 2.33581,-4.86566"
         id="path3403" />
    </g>
    <text
       xml:space="preserve"
       style="font-style:normal;font-weight:normal;font-size:40px;line-height:125%;font-family:Sans;letter-spacing:0px;word-spacing:0px;fill:#000000;fill-opacity:1;stroke:none;stroke-width:1px;stroke-linecap:butt;stroke-linejoin:miter;stroke-opacity:1"
       x="49.418133"
       y="503.67551"
       id="text3407"><tspan
         id="tspan3409"
         x="49.418133"
         y="503.67551" /></text>
    <g
       transform="translate(0,-11.683075)"
       id="g4422">
      <rect
         y="475.33276"
         x="2.9069474"
         height="46.511185"
         width="210.7538"
         id="rect3405"
         style="fill:#808080;stroke-width:1;stroke-linejoin:miter;stroke-miterlimit:4;stroke-dasharray:none" />
      <text
         id="text3411"
         y="509.6235"
         x="6.1744728"
         style="font-style:normal;font-weight:normal;font-size:40px;line-height:125%;font-family:Sans;letter-spacing:0px;word-spacing:0px;fill:#00ff00;fill-opacity:1;stroke:none;stroke-width:1px;stroke-linecap:butt;stroke-linejoin:miter;stroke-opacity:1"
         xml:space="preserve"><tspan
           y="509.6235"
           x="6.1744728"
           id="tspan3413">Properties</tspan></text>
    </g>
    <g
       transform="translate(-62.288193,-41.696777)"
       id="g4427">
      <rect
         style="fill:#808080;stroke-width:1;stroke-linejoin:miter;stroke-miterlimit:4;stroke-dasharray:none"
         id="rect4418"
         width="239.82329"
         height="46.511185"
         x="310.11874"
         y="505.34647" />
      <text
         id="text3415"
         y="539.28564"
         x="313.22375"
         style="font-style:normal;font-weight:normal;font-size:40px;line-height:125%;font-family:Sans;letter-spacing:0px;word-spacing:0px;fill:#000000;fill-opacity:1;stroke:none;stroke-width:1px;stroke-linecap:butt;stroke-linejoin:miter;stroke-opacity:1"
         xml:space="preserve"><tspan
           style="fill:#ff0000;fill-opacity:1"
           y="539.28564"
           x="313.22375"
           id="tspan3417">Component</tspan></text>
    </g>
    <g
       transform="translate(40.000031,-40)"
       id="g4447">
      <rect
         y="503.64969"
         x="481.82361"
         height="46.511185"
         width="104.65016"
         id="rect4420"
         style="fill:#808080;stroke-width:1;stroke-linejoin:miter;stroke-miterlimit:4;stroke-dasharray:none" />
      <text
         id="text3419"
         y="541.46582"
         x="485.75024"
         style="font-style:normal;font-weight:normal;font-size:40px;line-height:125%;font-family:Sans;letter-spacing:0px;word-spacing:0px;fill:#000000;fill-opacity:1;stroke:none;stroke-width:1px;stroke-linecap:butt;stroke-linejoin:miter;stroke-opacity:1"
         xml:space="preserve"><tspan
           style="fill:#0000ff;fill-opacity:1"
           y="541.46582"
           x="485.75024"
           id="tspan3421">DOM</tspan></text>
    </g>
    <path
       id="path4443"
       d="m 213.66075,486.90528 34.1698,0"
       style="fill:none;fill-rule:evenodd;stroke:#000000;stroke-width:1px;stroke-linecap:butt;stroke-linejoin:miter;stroke-opacity:1;marker-end:url(#Arrow1Lend)" />
    <path
       id="path4445"
       d="m 487.65384,486.90528 34.1698,0"
       style="fill:none;fill-rule:evenodd;stroke:#000000;stroke-width:1px;stroke-linecap:butt;stroke-linejoin:miter;stroke-opacity:1;marker-end:url(#marker4738)" />
    <text
       id="text4828"
       y="583.82037"
       x="15.261482"
       style="font-style:normal;font-variant:normal;font-weight:normal;font-stretch:normal;font-size:40px;line-height:125%;font-family:'Fira Code';-inkscape-font-specification:'Fira Code';letter-spacing:0px;word-spacing:0px;fill:#000000;fill-opacity:1;stroke:none;stroke-width:1px;stroke-linecap:butt;stroke-linejoin:miter;stroke-opacity:1"
       xml:space="preserve"><tspan
         y="583.82037"
         x="15.261482"
         id="tspan4830">Ergo:</tspan><tspan
         id="tspan4832"
         y="633.82037"
         x="15.261482">Prop1  == Props2</tspan><tspan
         id="tspan4834"
         y="683.82037"
         x="15.261482">-&gt;DOM1 == DOM2</tspan></text>
  </g>
</svg>
